<?xml version="1.0" encoding="UTF-8"?>
<svg id="Layer_1" data-name="Layer 1" xmlns="http://www.w3.org/2000/svg" viewBox="0 0 144.02 144">
  <defs>
    <style>
      .cls-1 {
        fill: #f9dca8;
      }

      .cls-2 {
        fill: #f6c162;
      }

      .cls-3 {
        fill: #e16340;
      }

      .cls-4 {
        fill: #0e1131;
      }

      .cls-5 {
        fill: #783a3a;
      }

      .cls-6 {
        fill: none;
        stroke: #b0ada5;
        stroke-miterlimit: 10;
        stroke-width: 2px;
      }
    </style>
  </defs>
  <rect class="cls-6" x="33.36" y="31.31" width="69.03" height="24.38"/>
  <rect class="cls-5" x="9.26" y="45.48" width="118.93" height="66.77"/>
  <rect class="cls-4" x="12.95" y="59.8" width="110.99" height="49.32"/>
  <rect class="cls-5" x="58.31" y="84.32" width="20.7" height="13.61"/>
  <circle class="cls-1" cx="99.42" cy="86.35" r="17.69"/>
  <circle class="cls-1" cx="38.26" cy="86.31" r="17.69"/>
  <rect class="cls-4" x="15.92" y="112.25" width="106.17" height="8.36"/>
  <rect class="cls-2" x="60.58" y="86.31" width="16.16" height="10.21"/>
  <rect class="cls-5" x="58.31" y="74.26" width="19.99" height="4.54"/>
  <rect class="cls-5" x="28.68" y="59.8" width="6.8" height="1.84"/>
  <rect class="cls-5" x="101.4" y="59.8" width="6.95" height="1.84"/>
  <circle class="cls-2" cx="38.26" cy="86.35" r="7.91"> <animate attributeName="r" begin="200ms" dur="600ms" repeatCount="indefinite" from="5%" to="7%"/></circle>
  <circle class="cls-2" cx="99.42" cy="86.35" r="7.91"><animate attributeName="r" begin="200ms" dur="600ms" repeatCount="indefinite" from="5%" to="7%"/></circle>
  <circle class="cls-3" cx="21.81" cy="68.37" r="3.47"/>
  <circle class="cls-3" cx="115.65" cy="68.37" r="3.47"/>
  <rect class="cls-3" x="58.31" y="101.42" width="19.99" height="5.24"/>
  <rect class="cls-2" x="15.58" y="51.15" width="105.55" height="6.52"/>
  <rect class="cls-4" x="12.95" y="45.48" width="110.99" height="3.12"/>
  <rect class="cls-4" x="48.67" y="29.32" width="38.98" height="4.39"/>
</svg>