<?xml version="1.0" encoding="UTF-8"?>
<svg id="Layer_1" data-name="Layer 1" xmlns="http://www.w3.org/2000/svg" viewBox="0 0 144.02 144">
  <defs>
    <style>
  

      .cls-1 {
        fill: #f9dca8;
      }

      .cls-2 {
        fill: #f6c162;
      }

      .cls-3 {
        fill: #e16340;
      }

      .cls-4 {
        fill: #0e1131;
      }

      .cls-5 {
        fill: #783a3a;
      }

      .cls-6 {
        fill: none;
        stroke: #b0ada5;
        stroke-miterlimit: 10;
        stroke-width: 2px;
      }

    </style>
  </defs>
  <rect class="cls-6" x="40.07" y="31.45" width="68.92" height="24.34" />
  <rect class="cls-4" x="16.01" y="45.6" width="118.74" height="66.66" />
  <rect class="cls-2" x="19.69" y="59.89" width="110.82" height="49.24" />
  <rect class="cls-5" x="64.98" y="84.38" width="20.66" height="13.59" />
  <circle class="cls-4" cx="106.03" cy="86.4" r="17.66" />
  <circle class="cls-4" cx="44.96" cy="86.36" r="17.66" />
  <rect class="cls-3" x="22.67" y="112.26" width="106" height="8.35" />
  <rect class="cls-1" x="67.25" y="86.36" width="16.13" height="10.19" />
  <rect class="cls-5" x="64.98" y="74.33" width="19.96" height="4.53" />
  <rect class="cls-5" x="35.4" y="59.89" width="6.79" height="1.84" />
  <rect class="cls-5" x="108.01" y="59.89" width="6.93" height="1.84" />
  <g class="inner-circle">
    <circle class="cls-1 " cx="44.96" cy="86.4" r="7.9" ><animate attributeName="r" begin="200ms" dur="500ms" repeatCount="indefinite" from="5%" to="7%"/></circle>
    <circle class="cls-1 " cx="106.03" cy="86.4" r="7.9" ><animate attributeName="r" begin="200ms" dur="500ms" repeatCount="indefinite" from="5%" to="7%"/></circle>
  </g>
  <circle class="cls-3" cx="28.54" cy="68.46" r="3.47" />
  <circle class="cls-3" cx="122.23" cy="68.46" r="3.47" />
  <rect class="cls-3" x="64.98" y="101.45" width="19.96" height="5.24" />
  <rect class="cls-1" x="21.34" y="51.26" width="107.33" height="6.51" />
  <rect class="cls-3" x="19.69" y="45.6" width="110.82" height="3.11" />
  <rect class="cls-3" x="55.36" y="29.47" width="38.92" height="4.39" />
</svg>