<?xml version="1.0" encoding="UTF-8"?>
<svg id="Layer_1" data-name="Layer 1" xmlns="http://www.w3.org/2000/svg" viewBox="0 0 144.02 144">
  <defs>
    <style>
      .cls-1 {
        fill: #f6c162;
      }

      .cls-2 {
        fill: #e16340;
      }

      .cls-3 {
        fill: #0e1131;
      }

      .cls-4 {
        fill: #783a3a;
      }

      .cls-5 {
        fill: #f9dca8;
        stroke: #f9dca8;
      }

      .cls-5, .cls-6 {
        stroke-miterlimit: 10;
      }

      .cls-6 {
        fill: none;
        stroke: #f6c162;
      }
    </style>
  </defs>
  <rect class="cls-3" x="62.58" y="102.65" width="3.95" height="6.46" rx=".65" ry=".65"/>
  <rect class="cls-3" x="102.04" y="98.28" width="3.95" height="6.46" rx=".65" ry=".65"/>
  <path class="cls-3" d="m61.41,105.45l-29.03-11.19c-1.99,0-3.61-1.61-3.61-3.59V25.04c0-1.98,1.61-3.59,3.61-3.59h36.69c1.99,0,3.61,1.61,3.61,3.59v65.64c0,1.98-9.27,14.77-11.26,14.77Z"/>
  <path class="cls-4" d="m104.94,101.66l-41.62,4.22c-2.78,0-5.67-1.29-5.67-4.67V27.57c0-3.38,2.25-6.11,5.03-6.11h42.26c2.78,0,5.03,2.74,5.03,6.11v67.98c0,3.38-2.25,6.11-5.03,6.11Z"/>
  <path class="cls-1" d="m102.32,38.91l-36.02.48c-2.22.03-2.67-1.48-2.68-2.11l-.14-9.57c0-.62.51-2.39,2.73-2.42l34.95-.5c2.22-.03,3.59.96,3.61,2.43l-.1,9.91c0,.62-.88,1.76-2.36,1.79Z"/>
  <rect class="cls-3" x="32.46" y="92.25" width="3.95" height="6.46" rx=".65" ry=".65"/>
  <circle class="cls-2" cx="71.55" cy="32.03" r="2.73"/>
  <circle class="cls-2" cx="79.93" cy="31.91" r="2.73"/>
  <circle class="cls-2" cx="88.66" cy="31.8" r="2.73"/>
  <circle class="cls-2" cx="97.4" cy="31.68" r="2.73"/>
  <path class="cls-1" d="m101.22,95.02l-33.2,2.77c-2.22,0-4.52-.85-4.52-3.06v-48.38c0-2.22,1.8-4.02,4.02-4.02h33.71c2.22,0,4.02,1.8,4.02,4.02v44.65c0,2.22-1.8,4.02-4.02,4.02Z"/>
  <line class="cls-5" x1="66.84" y1="42.39" x2="67" y2="97.41"/>
  <line class="cls-5" x1="83.55" y1="42.06" x2="83.65" y2="96.04"/>
  <line class="cls-5" x1="86.43" y1="42.07" x2="86.54" y2="95.67"/>
  <line class="cls-5" x1="77.14" y1="42.39" x2="77.3" y2="96.79"/>
  <line class="cls-5" x1="89.36" y1="42.07" x2="89.37" y2="95.34"/>
  <line class="cls-5" x1="80.29" y1="42.4" x2="80.43" y2="96.45"/>
  <line class="cls-5" x1="73.78" y1="42.39" x2="73.92" y2="97.24"/>
  <line class="cls-5" x1="70.36" y1="42.39" x2="70.5" y2="97.66"/>
  <line class="cls-5" x1="105" y1="72.48" x2="63.63" y2="74.42"/>
  <line class="cls-5" x1="105" y1="88.38" x2="63.13" y2="90.29"/>
  <line class="cls-5" x1="105.14" y1="91.2" x2="64.11" y2="93.06"/>
  <line class="cls-5" x1="105.09" y1="82.25" x2="63.26" y2="84.21"/>
  <line class="cls-5" x1="102.76" y1="94.15" x2="63.73" y2="95.85"/>
  <line class="cls-5" x1="104.13" y1="43.57" x2="64.04" y2="45.4"/>
  <line class="cls-5" x1="105.52" y1="46.37" x2="64.05" y2="48.16"/>
  <line class="cls-5" x1="105.08" y1="85.2" x2="63.44" y2="87.13"/>
  <line class="cls-5" x1="105.18" y1="78.96" x2="62.93" y2="80.92"/>
  <line class="cls-5" x1="105.26" y1="75.62" x2="63.27" y2="77.57"/>
  <line class="cls-5" x1="105.51" y1="63.69" x2="63.64" y2="65.6"/>
  <line class="cls-5" x1="104.95" y1="66.54" x2="63.37" y2="68.44"/>
  <line class="cls-5" x1="105.21" y1="69.61" x2="63.91" y2="71.4"/>
  <line class="cls-5" x1="104.99" y1="60.54" x2="63.92" y2="62.44"/>
  <line class="cls-5" x1="104.93" y1="52.16" x2="63.06" y2="54.07"/>
  <line class="cls-5" x1="105.08" y1="54.98" x2="62.77" y2="56.9"/>
  <line class="cls-5" x1="105.03" y1="57.84" x2="63.68" y2="59.63"/>
  <line class="cls-5" x1="104.99" y1="48.98" x2="63.35" y2="50.91"/>
  <line class="cls-5" x1="92.3" y1="42.06" x2="92.46" y2="95.49"/>
  <line class="cls-5" x1="102.61" y1="42.41" x2="102.76" y2="94.27"/>
  <line class="cls-5" x1="99.24" y1="42.07" x2="99.38" y2="94.68"/>
  <line class="cls-5" x1="95.82" y1="42.06" x2="95.97" y2="95.08"/>
  <path class="cls-6" d="m100.98,94.68l-33.2,2.77c-2.22,0-4.52-.85-4.52-3.06v-48.38c0-2.22,1.8-4.02,4.02-4.02h33.71c2.22,0,4.02,1.8,4.02,4.02v44.65c0,2.22-1.8,4.02-4.02,4.02Z"/>
</svg>